<svg xmlns="http://www.w3.org/2000/svg" width="149" height="51" viewBox="0 0 446 154">
  <g fill="none" fill-rule="evenodd">
    <path fill="#010000" d="M123.196925 85.2125768L123.196925 64.6722189 116.824567 64.6722189 116.824567 56.5993768 123.355788 56.5993768 123.355788 46.7839032 132.853536 39.8976716 132.853536 56.5993768 142.748441 56.5993768 142.748441 64.6722189 132.853536 64.6722189 132.853536 83.5104716C132.853536 87.3102189 134.712883 88.4190189 137.246588 88.4190189 139.264799 88.4190189 141.441872 87.6263242 142.748441 86.9941137L142.748441 95.7396926C141.283009 96.2940926 138.433199 96.9279242 135.544483 96.9279242 127.826651 96.9279242 123.196925 92.4149137 123.196925 85.2125768M151.653045 96.1365263L161.309656 96.1365263 161.309656 56.5990526 151.653045 56.5990526 151.653045 96.1365263zM151.41475 49.1178947L161.546329 49.1178947 161.546329 40.2134526 151.41475 40.2134526 151.41475 49.1178947zM169.422376 76.4264716C169.422376 66.0582189 175.596965 55.7677768 188.498923 55.7677768 196.335091 55.7677768 202.587491 59.5675242 205.594544 67.4425979L196.412902 71.0040505C195.385155 67.2059242 192.455912 64.5133558 188.498923 64.5133558 181.849365 64.5133558 179.237849 70.5290821 179.237849 76.4264716 179.237849 82.4421979 181.769933 88.1807242 188.498923 88.1807242 192.376481 88.1807242 195.385155 85.6081137 196.412902 81.8877979L205.199007 85.2125768C202.587491 92.5737768 196.412902 96.9263032 188.576733 96.9263032 175.674776 96.9263032 169.422376 86.9146821 169.422376 76.4264716M214.341582 85.2125768L214.341582 64.6722189 207.969224 64.6722189 207.969224 56.5993768 214.500445 56.5993768 214.500445 46.7839032 223.998192 39.8976716 223.998192 56.5993768 233.893098 56.5993768 233.893098 64.6722189 223.998192 64.6722189 223.998192 83.5104716C223.998192 87.3102189 225.85754 88.4190189 228.391245 88.4190189 230.409456 88.4190189 232.586529 87.6263242 233.893098 86.9941137L233.893098 95.7396926C232.427666 96.2940926 229.577856 96.9279242 226.68914 96.9279242 218.971308 96.9279242 214.341582 92.4149137 214.341582 85.2125768M265.751483 79.8300337L265.751483 79.5139284 255.540472 79.5139284C251.14742 79.5139284 249.129209 81.8093389 249.129209 84.3025179 249.129209 86.9140337 251.226851 88.7750021 255.540472 88.7750021 261.476767 88.7750021 265.158178 84.5002863 265.751483 79.8300337M274.498683 72.1527284L274.498683 96.1362021 266.542557 96.1362021 265.949251 90.8321179C263.417167 94.9090653 258.113083 96.9272758 253.601693 96.9272758 245.488325 96.9272758 239.235925 92.2570232 239.235925 83.9847916 239.235925 75.3980758 246.122157 72.5482653 254.947167 72.5482653L265.712578 72.5482653C265.514809 66.6914021 263.772178 64.1966021 257.479251 64.1966021 252.928957 64.1966021 249.842472 66.8891705 248.140367 69.7778863L240.779167 64.4348968C244.577293 59.2507705 249.604178 55.7671284 257.401441 55.7671284 268.16523 55.7671284 274.498683 62.4961179 274.498683 72.1527284M281.225889 76.4264716C281.225889 66.0582189 287.400479 55.7677768 300.302437 55.7677768 308.138605 55.7677768 314.391005 59.5675242 317.398058 67.4425979L308.216416 71.0040505C307.188668 67.2059242 304.259426 64.5133558 300.302437 64.5133558 293.652879 64.5133558 291.041363 70.5290821 291.041363 76.4264716 291.041363 82.4421979 293.573447 88.1807242 300.302437 88.1807242 304.179995 88.1807242 307.188668 85.6081137 308.216416 81.8877979L317.002521 85.2125768C314.391005 92.5737768 308.216416 96.9263032 300.380247 96.9263032 287.478289 96.9263032 281.225889 86.9146821 281.225889 76.4264716M326.145096 85.2125768L326.145096 64.6722189 319.772738 64.6722189 319.772738 56.5993768 326.303959 56.5993768 326.303959 46.7839032 335.801706 39.8976716 335.801706 56.5993768 345.696611 56.5993768 345.696611 64.6722189 335.801706 64.6722189 335.801706 83.5104716C335.801706 87.3102189 337.661053 88.4190189 340.194759 88.4190189 342.212969 88.4190189 344.390043 87.6263242 345.696611 86.9941137L345.696611 95.7396926C344.23118 96.2940926 341.381369 96.9279242 338.492653 96.9279242 330.774822 96.9279242 326.145096 92.4149137 326.145096 85.2125768M354.046653 56.5987284L363.46659 56.5987284 363.46659 63.2482863C365.167075 58.4580758 369.639559 55.7671284 374.073138 55.7671284 376.684653 55.7671284 379.414506 56.67816 381.31438 58.6169389L376.921327 66.5325389C375.61638 65.6620337 374.150948 65.1870653 372.607706 65.1870653 368.096317 65.1870653 363.387159 69.3823495 363.387159 79.4344968L363.387159 96.1362021 354.046653 96.1362021 354.046653 56.5987284zM386.538708 96.1365263L396.195319 96.1365263 396.195319 56.5990526 386.538708 56.5990526 386.538708 96.1365263zM386.302035 49.1178947L396.433613 49.1178947 396.433613 40.2134526 386.302035 40.2134526 386.302035 49.1178947zM436.24699 76.3473642C436.24699 69.7772379 433.278843 64.6725432 426.629285 64.6725432 419.981348 64.6725432 416.894864 69.6978063 416.894864 76.3473642 416.894864 82.9969221 419.981348 88.1810484 426.629285 88.1810484 433.278843 88.1810484 436.24699 82.9174905 436.24699 76.3473642L436.24699 76.3473642zM407.791032 56.59808L417.765369 56.59808 417.765369 60.5566905C420.535748 57.15248 424.928801 55.7681011 429.044653 55.7681011 440.006211 55.7681011 445.983032 65.4247116 445.983032 76.3473642 445.983032 87.3899747 440.006211 96.9266274 428.88579 96.9266274 424.651601 96.9266274 420.535748 95.5811537 417.765369 92.1785642L417.765369 112.519533 407.791032 112.519533 407.791032 56.59808z"/>
    <path fill="#22E4AB" d="M76.2485394,143.706258 C73.7196973,143.720768 71.7047289,141.720389 71.6868973,139.207758 C71.6690658,136.802116 73.7051079,134.673674 76.2258447,134.675294 C78.5342236,134.676916 80.7145394,136.539505 80.7502026,139.152642 C80.7842447,141.665274 78.7741394,143.69321 76.2485394,143.706258 M26.5389605,9.54623306 C28.9705394,9.55272624 31.0568342,11.5206841 31.0406236,14.0981578 C31.0244131,16.7923473 28.7225184,18.6970841 26.4789815,18.5771262 C24.05875,18.6743894 21.9286868,16.443821 21.9838026,14.0397999 C22.0437815,11.5141999 24.0214658,9.54137888 26.5389605,9.54623306 M90.1166447,137.043653 C89.6076342,133.545421 87.9817184,130.629147 85.2648342,128.41641 C81.0257815,124.96681 76.2274658,124.153042 71.1243921,126.091821 C66.65515,127.789063 63.8458658,131.108979 62.5717184,135.727358 C62.3852973,136.404958 62.3350447,137.110116 62.1502447,137.782853 C61.851971,137.790958 61.6509605,137.635337 61.4321184,137.538074 C58.6925394,136.3158 55.9578236,135.090284 53.2198658,133.864768 C40.9938868,128.396958 28.7679079,122.927526 16.5403079,117.461337 C15.3666658,116.936116 14.1849184,116.427105 13.0047921,115.913232 L13.0064131,115.913232 L11.8587079,115.323168 C9.92641312,114.178705 9.13858154,111.964347 9.88426575,109.848874 C10.3008763,108.667126 11.1308552,107.882537 12.1845394,107.281126 C17.5696763,104.209232 22.951571,101.132474 28.3334658,98.0589578 C38.2510658,92.396621 48.1686658,86.7326631 58.0862658,81.0735683 C59.2890868,80.386242 60.4222026,79.6016526 61.3786236,78.5965999 C64.5996552,75.210221 65.9305394,71.1900105 65.2642868,66.557042 C64.7260973,62.8172736 62.8878236,59.8021157 59.911571,57.4969789 C57.5010658,55.6295262 54.7290658,54.7347052 51.6960763,54.5644947 C49.5449394,54.4429157 47.3970447,54.2808105 45.2475289,54.1251894 C42.5225394,53.929042 39.799171,53.713442 37.0725605,53.5172947 C34.8792763,53.3600526 32.684371,53.2271262 30.4910868,53.066642 C27.1679289,52.8251052 23.8463921,52.5673578 20.5248552,52.325821 C18.3526447,52.1685789 16.1804342,52.0388947 14.0082236,51.8800315 C11.8035921,51.7195473 10.2538658,50.4648526 9.70594996,48.4190841 C9.48062365,47.5809999 9.58274996,46.7461578 9.77079207,45.9161789 C9.78538154,45.7702841 9.73350786,45.6876105 9.66218154,45.6276315 C9.73188681,45.6324947 9.79834996,45.6454631 9.87291838,45.6357368 C9.92803417,45.5157789 9.98963417,45.397442 10.0366447,45.272621 C12.4325605,38.8451473 14.8284763,32.4176736 17.2260131,25.9901999 C17.3394868,25.685442 17.4189184,25.3628526 17.5956131,25.100242 C17.68315,25.1164526 17.7317815,25.1115894 17.7658236,25.1326631 C17.8582236,25.1942631 17.9441394,25.2655894 18.0349184,25.3288105 C22.6905815,28.5919894 27.6477605,29.1301789 32.7702868,26.6661789 C38.2559289,24.0287262 41.2402868,18.1913157 40.4556973,12.2485368 C40.0228763,8.97076835 38.6482236,6.16796835 36.2523079,3.91146309 C32.9875079,0.837947297 29.0904973,-0.432957966 24.6309815,0.129547297 C21.750371,0.492663087 19.2328763,1.67927361 17.068771,3.61643151 C15.2402236,5.25369467 13.988771,7.26704203 13.1377184,9.55596835 C9.67839207,18.8575683 6.20285523,28.1526841 2.74514996,37.4559052 C2.18102365,38.9732105 1.56016049,40.469442 1.08357102,42.0191683 C0.971718385,42.255842 1.03493944,42.3855262 1.15651838,42.4779262 C1.03656049,42.4827894 0.924707859,42.5411473 0.835549964,42.7048736 C-0.210028983,45.5319894 -0.250555299,48.3996315 0.581044701,51.2737578 C1.44182365,54.2500105 3.13258154,56.6832105 5.59009733,58.5652526 C7.45917102,59.995021 9.56978154,60.9271262 11.9024763,61.2367473 C14.6550236,61.6047262 17.43675,61.6857789 20.2038868,61.9013789 C22.3307079,62.0683473 24.45915,62.1964105 26.5875921,62.3471683 C28.8911079,62.5108947 31.1946236,62.6827262 33.4997605,62.8496947 C34.8954868,62.9501999 36.2912131,63.0425999 37.6869394,63.1447262 C40.4346236,63.3457368 43.1806868,63.5548526 45.92675,63.7558631 C47.8768763,63.8985157 49.8286236,64.0071262 51.7755079,64.1773368 C54.9884342,64.4577789 56.8510236,67.8960315 55.3758658,70.7571894 C54.8960342,71.6860526 54.1487289,72.3133999 53.2620131,72.8191683 C38.0387079,81.5096315 22.8154026,90.2049578 7.59209733,98.895421 C6.05533944,99.7724105 4.63367628,100.800158 3.50056049,102.168326 C0.0639289113,106.3166 -0.87303951,110.990095 0.853381543,116.085063 C2.16805523,119.965863 4.84279207,122.694095 8.58418154,124.367021 C13.9368973,126.762937 19.2879921,129.158853 24.6407079,131.554768 C39.7635079,138.329147 54.8846868,145.101905 70.0074868,151.874663 C72.5946868,153.033716 75.27915,153.562179 78.1176131,153.152053 C81.7276973,152.628453 84.7396131,150.996053 87.0544763,148.193253 C89.7275921,144.954389 90.7245394,141.206516 90.1166447,137.043653"/>
  </g>
</svg>
